<svg xmlns="http://www.w3.org/2000/svg" viewBox="0 0 48 48" fill="none">
  <circle cx="24" cy="24" r="20" stroke="#262626" stroke-width="1.75" />
  <circle cx="24" cy="24" r="2.25" fill="#262626" />
  <ellipse cx="24" cy="13.75" rx="2.5" ry="5.25" stroke="#262626" stroke-width="1.75" transform="rotate(0 24 24)" />
  <ellipse cx="24" cy="13.75" rx="2.5" ry="5.25" stroke="#262626" stroke-width="1.75" transform="rotate(45 24 24)" />
  <ellipse cx="24" cy="13.75" rx="2.5" ry="5.25" stroke="#262626" stroke-width="1.75" transform="rotate(90 24 24)" />
  <ellipse cx="24" cy="13.75" rx="2.5" ry="5.25" stroke="#262626" stroke-width="1.75" transform="rotate(135 24 24)" />
  <ellipse cx="24" cy="13.75" rx="2.5" ry="5.25" stroke="#262626" stroke-width="1.75" transform="rotate(180 24 24)" />
  <ellipse cx="24" cy="13.75" rx="2.5" ry="5.25" stroke="#262626" stroke-width="1.75" transform="rotate(225 24 24)" />
  <ellipse cx="24" cy="13.75" rx="2.5" ry="5.25" stroke="#262626" stroke-width="1.75" transform="rotate(270 24 24)" />
  <ellipse cx="24" cy="13.75" rx="2.5" ry="5.25" stroke="#262626" stroke-width="1.75" transform="rotate(315 24 24)" />
</svg>
